<?xml version="1.0" encoding="UTF-8"?>
<svg id="Layer_2" data-name="Layer 2" xmlns="http://www.w3.org/2000/svg" viewBox="0 0 175.55 189.24">
  <defs>
    <style>
      .cls-1 {
        fill: #fffdea;
      }

      .cls-2 {
        fill: #529558;
      }

      .cls-3 {
        fill: #1f6630;
      }

      .cls-4 {
        fill: #9ecf84;
      }

      .cls-5 {
        fill: #f2f1d4;
      }

      .cls-6 {
        fill: #d6d2b2;
      }

      .cls-7 {
        fill: #57a053;
      }

      .cls-8 {
        fill: #cac5a0;
      }

      .cls-9 {
        fill: #78ba68;
      }

      .cls-10 {
        fill: #e5e1be;
      }

      .cls-11 {
        fill: #3b8e4b;
      }

      .cls-12 {
        fill: #185229;
      }

      .cls-13 {
        fill: #39763d;
      }
    </style>
  </defs>
  <g id="Layer_1-2" data-name="Layer 1">
    <g id="Generative_Object_120_-30_" data-name="Generative Object (120, -30)">
      <path class="cls-12" d="M132.77,157.29c-4.14,11.31-24.67,11.24-36.01,10.73,3.29,4.22,3.62,9.97.5,14.08-1.83,2.41-4.32,3.68-7,4.8-11.76,3.95-27.63,2.4-39.54-1-7.61-2.17-14.54-6.42-14.56-15,0-3.2.82-5.96,1.81-8.94l.41-6.24c-7.85-2.12-15.18-4.14-22.69-6.59-3.42-1.11-6.64-2.38-9.44-4.68-4.21-3.46-6.06-8.7-6.18-14.15-.35-16.66.91-31.64,3.71-47.87l2.22-12.88c1.44-8.32,4.5-15.89,9.13-22.89,6.21-9.4,13.18-18.1,21.04-26.28l7.8-8.11c3.48-3.62,7.24-6.74,11.66-9.12,6.15-3.31,12.9-3.98,19.73-2.18,5.68,1.5,10.87,3.59,16.4,5.73,11.37,4.4,22.46,8.97,33.48,14.05,7.51,3.46,13.31,8.24,16.58,16.21,3.46.13,6.68,1.01,10.05,2.25,6.24,2.3,11.88,5.71,16.37,10.63,6.89,7.53,9.47,17.64,5.28,27.15-1.31,2.2-2.91,4.22-5.13,5.54-4.71,2.82-10.47,2.29-15.17-1.04,1.03,7.73,1.96,15.22,2.16,23.03s-2.69,14.81-8.46,19.77l-2.46,2.3c-5.41,5.06-11.49,9.08-17.73,13.42l3.91,3.92c2.84,3.81,3.79,8.83,2.14,13.34ZM72.9,63.77c2.71.69,5.38,1.3,8.19,2.25l17.3,5.8,38.89,14.13,5.87,2.31,3.28,1.4c1.92.82,3.51,1.89,5.25,3.31l-1.97-13.9c-2.17-.71-4.15-1.59-6.1-2.68-2.88-1.61-5.32-3.58-7.75-5.8-2.76-2.53-5.67-4.66-8.07-7.54-4.93-5.64-5.18-13.63-1.07-19.85,2.67-4.04,6.9-6.29,11.87-6.48-2.72-5.24-6.99-9.43-12.5-12.14-9.92-4.87-20.08-8.93-30.32-13.08l-8.61-3.27c-10.24-3.89-19.76-8.28-30.4-2.19-7.05,4.04-15.61,13.34-21.37,19.79-6.75,7.56-13.06,15.25-18.56,23.78-3.24,5.03-5.59,10.25-6.88,16.09-2.7,12.32-4.57,24.63-5.99,37.22l-1.15,14.44c.87-.24.85-.92,1.24-1.4,4.37-5.33,8.72-10.39,13.45-15.42,10.8-11.49,21.94-22.84,34.39-32.44,6.19-4.77,13.55-6.24,21.01-4.35ZM171.54,65.55c-.32-.62.6-.71.26-.15,1.39,5.46-1.92,10.18-1.95,10.67,0,.11.36.2.38.1l.1-.59c1.53-1.75,2.61-6.66,2.23-8.89-.33-1.97-.55-3.9-1.25-5.71-1.39-3.55-3.54-6.82-6.38-9.61l-2.39-2.35c-.17-.16-.23-.36-.54-.44-.41-.11-.69-.59-1.02-.85l-1.59-1.23c-3.35-2.04-6.87-3.99-10.64-5.02-5.16-1.4-11.87-2.98-16.72.94-3.26,2.64-5.16,7.07-4.82,11.28.46,5.74,5.58,9.17,9.55,12.84,3.73,3.44,7.44,6.86,12.25,8.77,2.29.91,4.38,1.73,6.17,3.5,2.73,1.95,5.91,2.87,9.23,1.81,4.82-3.52,7.47-9.23,7.12-15.08ZM14.42,109.43c-2.51,2.72-5.04,5.46-7.22,8.66-.39.57-.19,1.52-1.06,1.76-.21-.56-.27-1.17-.75-1.59-.56,1.2-1.8,2.29-1.95,3.56-1.03,9.2-.94,18.11,8.06,22.37,3.17,1.5,6.37,2.5,9.78,3.48l16.65,4.76.12-8.41c.05-3.68,2.51-6.61,5.72-8.36,6.23-3.41,15.5-2.91,22.43-.8l.51-12.09c.14-3.42,1.85-6.21,4.5-8.34,2.42-1.89,5.1-3.13,8.15-3.84,9.2-2.14,19.15-.93,27.35,3.61,3.87,2.14,6.32,5.52,6.78,9.85l.02,9.41c3.85,1.26,7.41,2.65,10.62,4.73,4.72-3.15,8.85-6.31,13.15-9.69,6.65-5.24,13.37-10.58,14.78-18.87.73-4.26.32-8.73-.28-13.04-2.45-3.25-7.78-5.22-11.87-6.71l-41.33-15.06-15.67-5.24c-3.64-1.22-7.16-2.24-10.74-3.11-4.86-1.19-9.9-.98-14.51,1.44-3.53,1.85-6.85,4.1-9.39,7.2-.61.74-.8,1.65-1.58,2.34l-4.84,4.32c-9.74,8.68-18.59,18.22-27.43,27.66ZM169.74,76.42l-2.51,2.36c-.44.41-1.21.64-1.35,1.31,1.55-.86,3.03-1.91,3.86-3.67ZM113.67,164.42c7.96-.38,17.84-4.22,16.93-12.86-.36-3.4-2.29-6.16-4.78-8.26-3.49-2.95-7.6-4.9-11.85-6.53l-4.21-1.32c-1.35-.43-1.43-2.23-1.34-2.4.1-.18.47-.29.93-.3l-.3-10.61c-1.26-2.61-3.47-4.21-6.09-5.48-7.51-3.51-16.15-4.22-24.13-1.86-3.23.95-7.13,3.69-7.28,6.86l-.85,18.36c-.44,2.66-1.57,5.32-1.6,8.22-.31,8.79,6.78,11.93,14.34,14.02,7.56,2.09,15.21,2.56,23.02,2.73l7.2-.55ZM79.77,185.75c5.35-.13,12.72-1.5,15.51-6.29,1.32-2.26,1.72-5.12.48-7.42-.84-1.56-2.48-3.23-4.06-3.79-1.5-.53-3.02-.54-4.4-.71-8.36-1.01-18.64-3.9-21.62-12.51-.94-2.72-1.31-5.5-.87-8.34l1.26-8.12c-6.71-2.16-15.7-2.75-21.28.96-1.75,1.16-2.39,2.78-2.51,4.82l-.97,17.68-1.64,5.97c-.34,3.08-.35,6.14,1.55,8.62,4.28,5.56,15.23,7.62,22.33,8.64,5.18.75,10.36.74,15.66.81.31,0,.51-.11.54-.32Z"/>
      <path class="cls-1" d="M87.16,8.23c.06.21-.08.57-.24.52-.56-.16-.18,1.14-1.39,1.6-3.84,1.45-5.81,3.16-7.34,3.63-2.92.91-4.57,4.64-6.39,5.01-.15.03-.28.46-.41.53-.1.05-.16.03-.53,0-.58,9.55.15,18.99,1.83,28.52.9,5.1,1.22,9.94.11,14.94-.06.25.02.51.09.79-7.46-1.89-14.82-.42-21.01,4.35-12.45,9.6-23.59,20.95-34.39,32.44-4.73,5.03-9.07,10.09-13.45,15.42-.39.48-.37,1.17-1.24,1.4l1.15-14.44c1.42-12.59,3.29-24.9,5.99-37.22,1.28-5.85,3.63-11.06,6.88-16.09,5.5-8.54,11.82-16.23,18.56-23.78,5.76-6.45,14.31-15.75,21.37-19.79,10.63-6.09,20.16-1.71,30.4,2.19Z"/>
      <path class="cls-13" d="M113.97,136.77l-.55.05c-.05,1.43.49,2.45,1.43,3.25,1.29,3.22,2.44,6.44,2.54,10.06,1.38,1.21,2.48,2.62,2.91,4.39,1.17,4.78-4.15,8.22-9.03,9.62.76.4,1.63.32,2.41.28l-7.2.55c-7.82-.17-15.47-.64-23.02-2.73-7.56-2.09-14.66-5.23-14.34-14.02.03-2.9,1.16-5.55,1.6-8.22l.85-18.36c.15-3.17,4.04-5.9,7.28-6.86,7.98-2.35,16.61-1.65,24.13,1.86,2.62,1.28,4.83,2.88,6.09,5.48l.3,10.61c-.46.02-.83.13-.93.3-.09.17-.02,1.97,1.34,2.4l4.21,1.32ZM88.69,145.25h7.36s2.96.31,2.96.31v-.34s-1.66-.23-1.66-.23l-3.11-.23h-5.21c-3.78.25-7.68.77-10.98,2.79-1.68,1.03-3.37,2.64-3.11,4.71,1.04-4.77,9.38-7.02,13.76-7.01Z"/>
      <path class="cls-5" d="M95.77,11.51c-.45.08-.5.33-.3.54,2.43,3.58,4.23,7.37,5.3,11.58.88,3.43,1.83,6.84,1.85,10.22,0,1.11-1.12,1.78-2.12,1.62-.28.97-.14,1.94-.02,2.98.66,5.88.73,11.55,0,17.43l-1.87,14.84c-.04.33.33.74-.21,1.11l-17.3-5.8c-2.82-.94-5.48-1.56-8.19-2.25-.07-.28-.15-.54-.09-.79,1.11-5,.79-9.83-.11-14.94-1.68-9.52-2.41-18.96-1.83-28.52.37.03.42.05.53,0,.13-.07.26-.5.41-.53,1.83-.37,3.47-4.1,6.39-5.01,1.53-.48,3.5-2.18,7.34-3.63,1.21-.46.83-1.76,1.39-1.6.17.05.3-.31.24-.52l8.61,3.27Z"/>
      <path class="cls-13" d="M87.31,167.54c.97,1.93,1.12,4.23,1.66,6.44.27,1.12.71,1.94.36,3.16-1.45,5.09-6.31,7.25-11.49,8.36.66.33,1.31.25,1.93.24-.03.21-.22.33-.54.32-5.3-.07-10.49-.06-15.66-.81-7.09-1.02-18.05-3.08-22.33-8.64-1.9-2.47-1.89-5.54-1.55-8.62l1.64-5.97.97-17.68c.11-2.05.76-3.66,2.51-4.82,5.58-3.71,14.58-3.13,21.28-.96l-1.26,8.12c-.44,2.84-.07,5.62.87,8.34,2.98,8.61,13.26,11.5,21.62,12.51ZM43.5,175.28c.03-5.45,6.19-6.64,10.17-7.77-4.64-.02-11.85,3.27-10.17,7.77Z"/>
      <path class="cls-1" d="M126.72,43.21c-3.02-1.62-6.27-2.7-9.7-2.37-3.77.36-6.71,3.07-7.15,6.96-.89,7.85,1.89,15.55,7.15,21.63s12.61,9.52,20.26,10.56v5.97s-38.89-14.13-38.89-14.13c.54-.37.16-.77.21-1.11l1.87-14.84c.74-5.88.67-11.55,0-17.43-.12-1.04-.26-2.01.02-2.98,1,.15,2.13-.52,2.12-1.62-.01-3.38-.97-6.78-1.85-10.22-1.08-4.21-2.87-8-5.3-11.58-.2-.21-.15-.46.3-.54,10.24,4.15,20.4,8.21,30.32,13.08,5.5,2.7,9.78,6.9,12.5,12.14-4.96.19-9.19,2.44-11.87,6.48Z"/>
      <path class="cls-9" d="M148.76,41.5l-.06.4-4.76-1.01c-2.69-.57-5.6.09-8.29,1.34,3-.38,5.86-.36,8.94.36,9.28,2.17,17.29,6.6,23.3,13.81-.13.03-.13.21-.03.27.01.38.34.58.51.86.67,1.13,1.23,2.38,2.19,3.25.4,1.6.78,3.17.98,4.77.35,5.85-2.29,11.56-7.12,15.08-3.32,1.06-6.5.14-9.23-1.81-1.79-1.77-3.87-2.59-6.17-3.5-4.81-1.91-8.52-5.33-12.25-8.77-3.97-3.67-9.09-7.09-9.55-12.84-.34-4.2,1.57-8.64,4.82-11.28,4.84-3.92,11.55-2.34,16.72-.94ZM156.85,75.6c.69.83-1,.35-1.4,1.17-.12.25-.16.63-.08,1.13,1.03.69,2.92,1.05,4.04.12.86-.72,2.35-1.38,2.25-2.61-.07-.82-1.56-1.34-2.16-1.51-.1-.08-.28-.08-.52-.42.35-.26.81-.45.95-1.15-5.84,2.11-12.28-.42-17.55-2.82,4.4,3.2,9.32,4.94,14.48,6.1Z"/>
      <path class="cls-1" d="M72.18,66.48c.07.14-.29.38-.32.53l-2.09,9.27c-.12.51-.27.93-.86,1.06-5.48,1.2-10.59,3.47-14.88,7.17l-4.09,3.53-15.69,14.72c-3.59,3.37-7.11,6.31-11.01,9.29-3.64,2.78-7.39,5.2-11.6,6.97-.23-.29-.47-.44-.61-.43.01-.06.08-.2-.04-.3l3.44-7.97c-.35.13-.45.2-.83.14.5-.24.59-.78.82-1.03,8.84-9.44,17.69-18.98,27.43-27.66l4.84-4.32c.78-.69.97-1.6,1.58-2.34,2.55-3.1,5.87-5.35,9.39-7.2,4.61-2.41,9.65-2.63,14.51-1.44Z"/>
      <path class="cls-1" d="M98.58,74.83l41.33,15.06c4.09,1.49,9.42,3.45,11.87,6.71.6,4.31,1,8.78.28,13.04.16.13.21.31.13.46s-.25.22-.41.16c-.19-.07-.24-.25-.26-.45l-5.98-2.63-11.72-3.9c-5.92-1.97-11.44-4.3-16.92-7.25-6.12-3.3-11.33-7.55-15.45-13.16-1.62-2.21-2.89-4.5-3.48-7.21l-.07-.67c-.02-.2.44-.29.68-.16Z"/>
      <path class="cls-6" d="M126.72,43.21c-4.11,6.21-3.86,14.2,1.07,19.85,2.39,2.87,5.31,5.01,8.07,7.54,2.43,2.22,4.87,4.19,7.75,5.8-.39,0-.45.18-.47.47l-.21,2.15c-1.61.88-3.74,1.23-5.65.97-7.65-1.04-15.02-4.49-20.26-10.56s-8.04-13.78-7.15-21.63c.44-3.89,3.38-6.6,7.15-6.96,3.43-.33,6.69.75,9.7,2.37Z"/>
      <path class="cls-9" d="M125.82,143.3c2.49,2.1,4.42,4.86,4.78,8.26.91,8.64-8.97,12.48-16.93,12.86-.77.04-1.65.12-2.41-.28,4.88-1.4,10.2-4.84,9.03-9.62-.43-1.77-1.53-3.18-2.91-4.39-.1-3.61-1.25-6.83-2.54-10.06,3.22.75,6.24,2.03,9.3,3.39.57.26,1.26.24,1.68-.16Z"/>
      <path class="cls-9" d="M79.77,185.75c-.62.02-1.27.09-1.93-.24,5.18-1.12,10.04-3.27,11.49-8.36.35-1.23-.09-2.04-.36-3.16-.54-2.21-.69-4.5-1.66-6.44,1.38.17,2.9.18,4.4.71,1.58.56,3.21,2.23,4.06,3.79,1.24,2.3.84,5.15-.48,7.42-2.8,4.79-10.16,6.15-15.51,6.29Z"/>
      <path class="cls-1" d="M143.15,88.26c.17-.24.34-.39.32-.64l-.55-8.61.21-2.15c.03-.28.09-.46.47-.47,1.95,1.09,3.93,1.97,6.1,2.68l1.97,13.9c-1.74-1.42-3.32-2.49-5.25-3.31l-3.28-1.4Z"/>
      <path class="cls-13" d="M148.7,41.89l1.36.46c.66.23,1.36.48,2.07.83l6.83,3.43c.12.06.27.54.57.42.08-.03.25-.14.02-.27-.07-.04-.16-.09-.14-.25l1.59,1.23c-.39.09-.24.27-.16.36.16.17.44.17.57.3l.46.44s.21-.09.14-.25c.31.08.37.28.54.44-.73.31.62.74,1.58,1.92,1.44,1.76,3.19,3.3,3.76,5.44-6.01-7.21-14.02-11.64-23.3-13.81-3.08-.72-5.94-.74-8.94-.36,2.69-1.25,5.6-1.91,8.29-1.34l4.76,1.01Z"/>
      <path class="cls-1" d="M143.15,88.26l-5.87-2.31v-5.97c1.9.26,4.03-.09,5.64-.97l.55,8.61c.02.25-.15.4-.32.64Z"/>
      <path class="cls-4" d="M113.97,136.77c4.25,1.63,8.36,3.59,11.85,6.53-.42.4-1.1.42-1.68.16-3.06-1.36-6.08-2.64-9.3-3.39-.93-.8-1.48-1.82-1.43-3.25l.55-.05Z"/>
      <path class="cls-7" d="M171.31,60.98c-.34.04-.63-.1-.75-.21-.96-.87-1.51-2.12-2.19-3.25.56-.08.24-.33.18-.51-.11-.32-.37-.48-.69-.35-.1-.06-.11-.23.03-.27-.57-2.14-2.32-3.68-3.76-5.44-.96-1.18-2.31-1.61-1.58-1.92l2.39,2.35c2.84,2.78,4.99,6.06,6.38,9.61Z"/>
      <path class="cls-11" d="M171.31,60.98c.71,1.81.92,3.74,1.25,5.71.38,2.23-.7,7.14-2.23,8.89l-.1.59c-.02.11-.39.01-.38-.1.03-.49,3.34-5.21,1.95-10.67.33-.56-.59-.48-.26.15-.2-1.6-.57-3.18-.98-4.77.12.11.41.25.75.21Z"/>
      <path class="cls-7" d="M169.74,76.42c-.82,1.77-2.31,2.81-3.86,3.67.14-.68.91-.9,1.35-1.31l2.51-2.36Z"/>
      <path class="cls-2" d="M159.39,46.51c-.02.17.07.21.14.25.23.13.06.24-.02.27-.3.12-.45-.36-.57-.42l-6.83-3.43c-.71-.36-1.4-.6-2.07-.83l-1.36-.46.06-.4c3.77,1.02,7.28,2.98,10.64,5.02Z"/>
      <path class="cls-7" d="M162,48.59c.07.16-.09.3-.14.25l-.46-.44c-.14-.13-.41-.14-.57-.3-.08-.08-.23-.27.16-.36.33.25.61.74,1.02.85Z"/>
      <path class="cls-10" d="M98.58,74.83c-.24-.13-.7-.04-.68.16l.07.67c.58,2.71,1.86,5,3.48,7.21,4.13,5.62,9.34,9.87,15.45,13.16,5.48,2.95,11,5.28,16.92,7.25l11.72,3.9,5.98,2.63c.02.2.07.38.26.45.16.06.34-.01.41-.16s.02-.33-.13-.46c-1.41,8.29-8.13,13.63-14.78,18.87-4.29,3.38-8.43,6.54-13.15,9.69-3.21-2.08-6.78-3.47-10.62-4.73l-.02-9.41c-.46-4.33-2.91-7.71-6.78-9.85-8.19-4.54-18.15-5.74-27.35-3.61-3.06.71-5.74,1.96-8.15,3.84-2.65,2.13-4.35,4.92-4.5,8.34l-.51,12.09c-6.93-2.11-16.2-2.61-22.43.8-3.2,1.75-5.66,4.68-5.72,8.36l-.12,8.41-16.65-4.76c-3.41-.97-6.61-1.98-9.78-3.48-9-4.26-9.09-13.17-8.06-22.37.14-1.27,1.39-2.36,1.95-3.56.48.42.55,1.03.75,1.59.86-.24.67-1.19,1.06-1.76,2.18-3.21,4.71-5.94,7.22-8.66-.23.25-.32.78-.82,1.03.38.06.48-.01.83-.14l-3.44,7.97c-.31-.04-.61.02-.92.34l-2.62,2.8c-.31.33-.82.63-1.17.53-.23-.07-.51-.52-.7-.75-.49-.59-.55.03-.68.23-.2.33.23.65.3.87.17.52.06.98.57,1.16.34.12.75.08,1.08-.25l3.95-4.07c.15-.15.19-.44.22-.57.14,0,.38.14.61.43,4.22-1.77,7.96-4.19,11.6-6.97,3.9-2.98,7.42-5.92,11.01-9.29l15.69-14.72,4.09-3.53c4.29-3.7,9.39-5.98,14.88-7.17.58-.13.74-.55.86-1.06l2.09-9.27c.03-.14.38-.38.32-.53,3.58.88,7.1,1.9,10.74,3.11l15.67,5.24ZM76.89,76.19c2.13-.09,4.08-.32,6.19-1-1.12-.61-2.2-.4-3.24-.23-3.16.52-6.32.68-9.46,2.01,2.3.25,4.3-.69,6.51-.78Z"/>
      <path class="cls-8" d="M76.89,76.19c-2.21.09-4.21,1.03-6.51.78,3.14-1.34,6.3-1.49,9.46-2.01,1.03-.17,2.12-.38,3.24.23-2.11.68-4.06.91-6.19,1Z"/>
      <path class="cls-8" d="M10.99,118.29c.12.1.05.24.04.3-.03.12-.07.41-.22.57l-3.95,4.07c-.33.34-.74.37-1.08.25-.52-.18-.41-.64-.57-1.16-.07-.22-.5-.53-.3-.87.12-.2.18-.82.68-.23.19.23.47.68.7.75.35.1.86-.2,1.17-.53l2.62-2.8c.31-.33.61-.39.92-.34Z"/>
      <path class="cls-3" d="M88.69,145.25c-4.38,0-12.72,2.24-13.76,7.01-.25-2.07,1.43-3.68,3.11-4.71,3.3-2.02,7.21-2.55,10.98-2.81h5.21s3.11.25,3.11.25l1.68.23v.34s-2.98-.29-2.98-.29h-7.36Z"/>
      <path class="cls-3" d="M43.5,175.28c-1.68-4.5,5.54-7.8,10.17-7.77-3.98,1.14-10.14,2.33-10.17,7.77Z"/>
      <path class="cls-12" d="M159.5,73.9c.25.19.59.24.67.74-.29-.14-.71-.23-.76-.07-.2.7-.92.72-1.49.92l-.5.45c-.1.09-.38-.29-.57-.33-5.15-1.16-10.07-2.91-14.48-6.1,5.27,2.4,11.71,4.93,17.55,2.82-.13.7-.59.89-.95,1.15.25.34.42.34.52.42Z"/>
      <path class="cls-13" d="M168.37,57.52c-.17-.28-.5-.48-.51-.86.33-.14.58.03.69.35.06.18.37.43-.18.51Z"/>
      <path class="cls-3" d="M156.85,75.6c.19.04.47.42.57.33l.5-.45c.57-.2,1.29-.22,1.49-.92.05-.16.47-.07.76.07-.09-.5-.42-.55-.67-.74.59.16,2.09.68,2.16,1.51.1,1.24-1.39,1.9-2.25,2.61-1.12.93-3.01.57-4.04-.12-.07-.5-.04-.88.08-1.13.4-.82,2.08-.34,1.4-1.17Z"/>
    </g>
  </g>
</svg>