<svg width="877" height="208" viewBox="0 0 877 208" fill="none" xmlns="http://www.w3.org/2000/svg">
<path d="M245.767 173.424C241.247 173.424 237.633 172.293 234.923 170.035C232.213 167.778 230.402 163.873 229.502 158.32C228.599 150.318 227.954 141.991 227.566 133.34C227.179 124.692 226.987 116.879 226.987 109.909C226.987 102.939 227.146 95.033 227.47 86.574C227.791 78.1217 228.47 69.7586 229.502 61.4982C230.277 57.6261 231.696 54.6244 233.761 52.4931C235.823 50.3618 239.182 48.8825 243.831 48.0386C248.477 47.2013 254.801 46.781 262.806 46.781C273.518 46.781 282.555 48.3001 289.915 51.3315C297.271 54.3663 302.821 58.8208 306.567 64.6918C310.31 70.5695 312.183 77.8933 312.183 86.67C312.183 95.4467 310.343 102.711 306.663 108.843C302.983 114.976 297.721 119.659 290.881 122.882C284.038 126.109 275.973 127.724 266.678 127.724H261.062C259.513 127.724 258.478 128.207 257.965 129.177C257.448 130.143 257.19 131.404 257.19 132.953C257.19 135.925 257.22 138.635 257.286 141.084C257.349 143.54 257.448 146.25 257.578 149.219C257.703 152.191 257.769 155.868 257.769 160.256C257.769 162.579 257.445 164.777 256.8 166.839C256.151 168.907 254.96 170.519 253.219 171.68C251.475 172.842 248.99 173.424 245.764 173.424H245.767ZM259.901 105.455C268.677 105.455 275.067 104.002 279.071 101.099C283.072 98.1936 285.074 93.7092 285.074 87.6397C285.074 81.5701 283.138 77.377 279.266 75.0538C275.394 72.7305 269.067 71.5689 260.291 71.5689C259 71.5689 257.968 71.7311 257.194 72.0521C256.419 72.3764 255.804 73.1177 255.354 74.2794C254.9 75.441 254.609 77.4101 254.483 80.1868C254.354 82.9634 254.288 86.7395 254.288 91.5151C254.288 95.7744 254.414 98.9051 254.675 100.907C254.933 102.91 255.45 104.167 256.224 104.683C256.998 105.2 258.223 105.458 259.904 105.458L259.901 105.455Z" fill="#083C20"/>
<path d="M372.784 173.809C361.036 173.809 351.452 171.456 344.03 166.74C336.604 162.031 331.184 155.286 327.765 146.506C324.344 137.73 322.633 127.335 322.633 115.331C322.633 106.296 322.729 97.8074 322.924 89.868C323.116 81.9286 323.569 74.9589 324.281 68.9555C324.989 62.9521 326.121 58.4016 327.669 55.304C328.831 52.5935 330.38 50.5582 332.315 49.2046C334.251 47.8477 336.77 47.1726 339.867 47.1726C344.384 47.1726 347.836 48.4004 350.225 50.8527C352.611 53.3051 353.805 57.3095 353.805 62.8595C353.805 67.506 353.739 72.5099 353.613 77.8679C353.484 83.2259 353.352 89.2624 353.226 95.974C353.097 102.689 353.034 110.433 353.034 119.21C353.034 127.986 354.778 134.576 358.263 138.961C361.747 143.352 366.652 145.543 372.979 145.543C379.306 145.543 383.982 143.349 387.404 138.961C390.822 134.572 392.536 127.99 392.536 119.21C392.536 110.43 392.503 102.686 392.44 95.974C392.374 89.2624 392.278 83.2259 392.149 77.8679C392.02 72.5132 391.954 67.5093 391.954 62.8595C391.954 57.3095 393.115 53.3084 395.438 50.8527C397.761 48.4004 401.18 47.1726 405.7 47.1726C408.41 47.1726 410.763 47.7882 412.769 49.0127C414.767 50.2405 416.283 52.0805 417.319 54.5329C419.126 58.0177 420.35 62.7635 420.999 68.7669C421.644 74.7703 422.064 81.7102 422.256 89.5834C422.448 97.46 422.547 106.045 422.547 115.338C422.547 127.344 420.803 137.736 417.319 146.513C413.834 155.293 408.477 162.038 401.249 166.747C394.019 171.46 384.531 173.816 372.787 173.816L372.784 173.809Z" fill="#083C20"/>
<path d="M456.817 173.424C452.558 173.424 449.004 172.326 446.168 170.131C443.329 167.937 441.522 164.065 440.748 158.512C439.712 150.51 439.037 142.15 438.716 133.436C438.392 124.722 438.233 116.879 438.233 109.909C438.233 102.939 438.359 95.0959 438.62 86.7693C438.878 78.4427 439.652 70.1492 440.943 61.8854C441.456 57.8843 442.846 54.8164 445.106 52.6884C447.363 50.5571 450.848 49.0414 455.563 48.1379C460.272 47.2377 466.695 46.781 474.829 46.781C486.448 46.781 495.74 48.2041 502.713 51.0403C509.682 53.8831 514.718 57.9802 517.816 63.335C520.913 68.693 522.462 75.1167 522.462 82.6027C522.462 89.1852 521.039 94.7716 518.203 99.3519C515.36 103.936 511.876 107.649 507.746 110.485C507.23 111.001 506.809 111.521 506.488 112.034C506.164 112.55 506.005 113.133 506.005 113.778C506.005 114.814 506.164 115.684 506.488 116.392C506.809 117.104 507.167 117.782 507.554 118.424C509.228 120.748 511.234 123.624 513.557 127.042C515.88 130.464 518.203 134.081 520.526 137.887C522.849 141.697 524.914 145.377 526.724 148.924C528.531 152.475 529.63 155.543 530.017 158.121C530.791 162.642 529.921 166.385 527.402 169.354C524.884 172.322 521.304 173.808 516.657 173.808C512.653 173.808 509.301 172.614 506.588 170.227C503.874 167.841 501.68 164.903 500.006 161.418C495.359 153.028 491.647 146.25 488.873 141.084C486.097 135.921 483.87 131.788 482.192 128.69C480.514 125.593 479.158 123.59 478.125 122.687C477.089 121.787 475.478 121.33 473.284 121.33C471.09 121.33 469.703 121.846 469.121 122.879C468.538 123.915 468.251 125.268 468.251 126.946C468.251 130.56 468.313 133.853 468.442 136.822C468.568 139.794 468.701 143.053 468.83 146.601C468.955 150.152 469.022 154.703 469.022 160.253C469.022 163.738 468.019 166.805 466.02 169.45C464.018 172.097 460.954 173.418 456.824 173.418L456.817 173.424ZM474.439 101.195C479.988 101.195 484.247 100.421 487.219 98.872C490.187 97.3232 492.282 95.2581 493.513 92.6767C494.737 90.0953 495.353 87.322 495.353 84.3501C495.353 78.671 493.771 74.7328 490.608 72.5386C487.444 70.3444 482.119 69.2457 474.634 69.2457C472.311 69.2457 470.567 69.5071 469.405 70.0201C468.244 70.5364 467.47 71.8304 467.082 73.8922C466.695 75.9573 466.503 79.2502 466.503 83.7676C466.503 89.0628 466.662 92.9348 466.986 95.3871C467.307 97.8428 468.052 99.4247 469.214 100.133C470.375 100.844 472.119 101.199 474.442 101.199L474.439 101.195Z" fill="#083C20"/>
<path d="M556.346 173.424C550.793 173.424 546.792 171.23 544.34 166.838C543.436 164.902 542.695 161.675 542.113 157.154C541.534 152.637 541.11 146.475 540.855 138.661C540.594 130.851 540.468 121.204 540.468 109.71C540.468 98.216 540.597 88.3803 540.855 80.9539C541.113 73.5307 541.534 67.6597 542.113 63.3309C542.692 59.0088 543.433 55.8747 544.34 53.9387C546.792 49.4213 550.793 47.1609 556.346 47.1609C561.898 47.1609 565.833 49.4213 568.156 53.9387C569.189 55.8747 569.963 58.9724 570.479 63.235C570.995 67.4943 571.379 73.3719 571.641 80.8579C571.899 88.3472 572.028 97.9645 572.028 109.71C572.028 121.455 571.899 131.529 571.641 139.144C571.379 146.763 570.992 152.733 570.479 157.055C569.963 161.381 569.126 164.64 567.961 166.835C565.893 171.226 562.021 173.42 556.342 173.42L556.346 173.424Z" fill="#083C20"/>
<path d="M603.395 173.422C600.298 173.422 597.684 172.486 595.553 170.613C593.422 168.743 591.972 165.87 591.198 161.995C589.907 156.832 589.034 149.892 588.583 141.178C588.13 132.464 587.905 121.977 587.905 109.712C587.905 98.3537 588.163 88.4121 588.679 79.8902C589.192 71.3683 590.036 64.5277 591.198 59.3649C592.872 54.7184 595.457 51.4255 598.941 49.4895C602.426 47.5534 607.138 46.5837 613.075 46.5837C616.301 46.5837 619.336 47.0371 622.175 47.9406C625.014 48.8441 627.695 50.8463 630.21 53.944C632.728 57.0417 635.243 61.8536 637.761 68.37C640.28 74.8896 642.957 83.7656 645.796 94.9946C648.248 104.162 650.154 111.357 651.508 116.586C652.865 121.815 653.93 125.72 654.705 128.301C655.479 130.886 656.124 132.497 656.64 133.143C657.157 133.791 657.673 134.109 658.189 134.109C658.834 134.109 659.255 133.755 659.447 133.044C659.639 132.335 659.738 131.27 659.738 129.85C659.738 125.203 659.705 120.554 659.642 115.907C659.576 111.261 659.48 106.419 659.351 101.385C659.222 96.3515 659.126 90.8313 659.059 84.8279C658.993 78.8246 658.963 72.1428 658.963 64.7858C658.963 58.4614 660.125 53.9407 662.448 51.2302C664.771 48.5198 667.677 47.1629 671.161 47.1629C673.613 47.1629 675.87 47.8116 677.938 49.0989C680 50.3896 681.549 52.9081 682.584 56.6511C683.359 61.2976 684.004 67.8504 684.52 76.3061C685.037 84.7618 685.295 95.8981 685.295 109.709C685.295 121.973 685.033 132.656 684.52 141.757C684.004 150.858 683.097 157.669 681.81 162.187C680.387 166.446 678.034 169.481 674.742 171.288C671.449 173.095 667.028 173.998 661.478 173.998C658.636 173.998 656.058 173.611 653.732 172.837C651.409 172.062 649.182 170.513 647.05 168.19C644.919 165.867 642.791 162.607 640.66 158.411C638.529 154.218 636.368 148.727 634.174 141.949C631.977 135.172 629.528 126.815 626.818 116.873C624.753 109.129 623.138 103.027 621.977 98.5755C620.815 94.1209 619.912 90.8313 619.266 88.7C618.618 86.5687 618.105 85.2151 617.718 84.6327C617.33 84.0502 616.943 83.7623 616.556 83.7623C616.04 83.7623 615.62 84.0237 615.299 84.5367C614.974 85.053 614.815 86.2808 614.815 88.2168C614.815 93.8992 614.878 100.511 615.007 108.064C615.136 115.616 615.232 123.459 615.299 131.591C615.362 139.722 615.395 147.599 615.395 155.217C615.395 161.674 614.329 166.32 612.198 169.16C610.067 172.003 607.132 173.419 603.389 173.419L603.395 173.422Z" fill="#083C20"/>
<path d="M736.414 173.422C733.317 173.422 730.607 172.839 728.28 171.678C725.957 170.516 724.117 168.55 722.761 165.77C721.404 162.997 720.729 159.221 720.729 154.442V143.792C720.729 139.404 720.759 134.595 720.825 129.366C720.888 124.137 720.951 118.845 721.017 113.487C721.08 108.133 721.142 103.063 721.209 98.287C721.272 93.5114 721.305 89.3481 721.305 85.7971V78.3408C721.305 76.4048 721.013 75.081 720.434 74.3728C719.852 73.6646 718.72 73.3071 717.046 73.3071H705.235C702.525 73.3071 700.07 72.4698 697.879 70.7886C695.682 69.114 694.586 65.884 694.586 61.1051C694.586 58.3947 695.069 56.1045 696.039 54.2314C697.009 52.3615 698.944 50.8756 701.847 49.7768C704.752 48.6814 708.978 47.907 714.531 47.4536C720.08 47.0035 727.245 46.7751 736.024 46.7751C744.803 46.7751 752.318 47.0002 757.808 47.4536C763.295 47.907 767.521 48.6814 770.493 49.7768C773.461 50.8756 775.43 52.3615 776.399 54.2314C777.369 56.1045 777.852 58.3947 777.852 61.1051C777.852 65.884 776.787 69.1107 774.655 70.7886C772.524 72.4665 770.039 73.3071 767.2 73.3071H755.389C753.841 73.3071 752.679 73.6646 751.905 74.3728C751.13 75.0843 750.743 76.4048 750.743 78.3408C750.743 79.7639 750.773 82.246 750.839 85.7971C750.902 89.3481 750.935 93.5114 750.935 98.287C750.935 103.063 750.998 108.133 751.127 113.487C751.253 118.845 751.319 124.137 751.319 129.366C751.319 134.595 751.349 139.404 751.415 143.792C751.478 148.184 751.511 151.732 751.511 154.442C751.511 159.221 750.862 162.997 749.575 165.77C748.284 168.547 746.541 170.516 744.347 171.678C742.149 172.839 739.505 173.422 736.408 173.422H736.414Z" fill="#083C20"/>
<path d="M792.373 173.81C788.889 173.81 786.079 173.132 783.952 171.778C781.82 170.421 780.272 168.485 779.305 165.97C778.339 163.451 777.853 160.324 777.853 156.578C777.853 152.318 778.336 146.894 779.305 140.312C780.275 133.726 781.628 126.561 783.372 118.817C785.116 111.072 787.082 103.391 789.279 95.7728C792.248 86.2216 795.054 78.2822 797.701 71.9545C800.345 65.6301 803.122 60.5633 806.027 56.7541C808.933 52.9483 812.093 50.2676 815.515 48.7188C818.933 47.1699 822.775 46.3955 827.037 46.3955C831.554 46.3955 835.489 47.2361 838.848 48.914C842.203 50.5919 845.334 53.3388 848.239 57.1447C851.145 60.9539 853.822 66.024 856.274 72.345C858.726 78.6727 861.307 86.4169 864.018 95.5841C866.47 103.328 868.597 111.142 870.408 119.015C872.214 126.892 873.634 134.153 874.666 140.801C875.699 147.453 876.215 152.841 876.215 156.971C876.215 160.456 875.732 163.491 874.762 166.072C873.796 168.657 872.31 170.593 870.308 171.881C868.306 173.168 865.497 173.817 861.886 173.817C859.044 173.817 856.688 173.3 854.818 172.268C852.945 171.235 851.459 169.686 850.364 167.621C849.265 165.556 848.332 163.104 847.554 160.264C846.78 155.36 846.035 151.521 845.327 148.744C844.616 145.971 844.037 143.743 843.583 142.062C843.13 140.384 842.581 139.157 841.939 138.382C841.422 137.608 840.807 136.995 840.099 136.542C839.387 136.092 838.067 135.768 836.131 135.572C834.195 135.38 831.098 135.281 826.835 135.281C822.831 135.281 819.767 135.377 817.639 135.572C815.508 135.764 814.121 136.089 813.476 136.542C812.828 136.995 812.248 137.737 811.732 138.769C811.084 139.931 810.505 141.255 809.988 142.737C809.472 144.223 808.953 146.288 808.44 148.933C807.923 151.58 807.212 155.356 806.308 160.261C805.66 163.233 804.76 165.715 803.598 167.717C802.437 169.719 801.014 171.235 799.339 172.268C797.662 173.3 795.338 173.817 792.37 173.817L792.373 173.81ZM827.421 113.005H831.971C833.325 113.005 834.586 112.942 835.747 112.813C837.296 112.687 838.361 112.363 838.94 111.844C839.523 111.331 839.811 110.424 839.811 109.133C839.811 107.068 839.391 104.583 838.553 101.677C837.713 98.7711 836.776 95.5775 835.747 92.0926C834.198 86.9299 832.905 83.0578 831.875 80.4731C830.84 77.8917 829.969 76.184 829.261 75.3434C828.55 74.5061 827.679 74.0858 826.647 74.0858C825.872 74.0858 825.098 74.5392 824.324 75.4427C823.549 76.3462 822.709 78.0274 821.805 80.4764C820.902 82.932 819.674 86.7412 818.126 91.9007C817.222 94.9983 816.349 98.1324 815.511 101.293C814.671 104.457 814.254 107.071 814.254 109.136C814.254 110.427 814.512 111.334 815.028 111.847C815.541 112.363 816.64 112.687 818.321 112.817C819.995 112.946 821.547 113.008 822.967 113.008H827.421V113.005Z" fill="#083C20"/>
<path d="M183.717 0H0V208H183.717V0Z" fill="#083C20"/>
<path d="M135.445 49.5894C135.445 51.7042 136.167 53.531 137.609 55.0699C139.148 56.5128 140.975 57.2343 143.089 57.2343C145.204 57.2343 146.984 56.5128 148.424 55.0699C149.963 53.531 150.73 51.7042 150.73 49.5894C150.73 47.4747 149.963 45.6942 148.424 44.2546C146.981 42.7157 145.204 41.9479 143.089 41.9479C140.975 41.9479 139.148 42.7157 137.609 44.2546C136.167 45.6975 135.445 47.4747 135.445 49.5894ZM125.206 49.5894C125.206 46.3197 126.024 43.3412 127.659 40.6473C129.293 37.9567 131.454 35.7923 134.148 34.1574C136.838 32.5225 139.82 31.7051 143.089 31.7051C146.359 31.7051 149.337 32.5225 152.031 34.1574C154.721 35.7923 156.885 37.9534 158.52 40.6473C160.155 43.3379 160.972 46.3197 160.972 49.5894C160.972 52.8592 160.155 55.8377 158.52 58.5316C156.885 61.2222 154.725 63.3866 152.031 65.0215C149.34 66.6564 146.359 67.4738 143.089 67.4738C139.82 67.4738 136.842 66.6564 134.148 65.0215C131.458 63.3866 129.293 61.2255 127.659 58.5316C126.024 55.841 125.206 52.8592 125.206 49.5894ZM145.538 61.99C144.77 63.5289 144.049 65.4517 143.374 67.7584C142.798 69.9691 142.269 71.8919 141.789 73.5268C140.925 76.8925 139.866 80.7381 138.615 85.0636C137.46 89.2931 136.021 93.7642 134.29 98.4736C132.56 103.087 130.495 107.75 128.089 112.463C125.782 117.076 123.089 121.501 120.014 125.73C115.689 131.499 110.547 136.979 104.584 142.172C98.7197 147.268 92.1344 151.882 84.8277 156.015C77.6169 160.053 69.7841 163.465 61.3224 166.255L42.2879 145.342C51.9971 143.132 60.3595 140.342 67.3783 136.979C74.3971 133.613 80.4529 129.818 85.5491 125.585C90.6452 121.259 95.116 116.739 98.9612 112.029C102.039 108.184 104.633 104.146 106.748 99.9165C108.862 95.591 110.593 91.3119 111.94 87.0824C113.287 82.7569 114.246 78.6697 114.826 74.8241H51.3783C47.8209 74.8241 44.2635 74.9201 40.7062 75.1121C37.2447 75.208 34.5544 75.3536 32.6317 75.5456V50.8867C34.1705 51.0787 36.0931 51.2706 38.3996 51.4626C40.7062 51.6545 43.0623 51.8465 45.4648 52.0384C47.8673 52.1344 49.8395 52.1841 51.3783 52.1841H114.971C116.606 52.1841 118.671 52.1344 121.173 52.0384C123.671 51.8465 126.027 51.4626 128.238 50.8834L145.541 61.9867L145.538 61.99Z" fill="white"/>
</svg>
